{
  "accessors": [
    {
      "bufferView": 2,
      "componentType": 5126,
      "count": 8894,
      "max": [
        4.2376885414123535,
        4.082082748413086,
        4.237680912017822
      ],
      "min": [
        -4.237688064575195,
        0.003047012956812978,
        -4.2376813888549805
      ],
      "type": "VEC3"
    },
    {
      "bufferView": 2,
      "byteOffset": 106728,
      "componentType": 5126,
      "count": 8894,
      "max": [
        0.9998726844787598,
        1.0,
        0.999904990196228
      ],
      "min": [
        -0.9998716711997986,
        -1.0,
        -0.9999040365219116
      ],
      "type": "VEC3"
    },
    {
      "bufferView": 3,
      "componentType": 5126,
      "count": 8894,
      "max": [
        0.9999308586120605,
        0.9999995231628418,
        0.9999930262565613,
        1.0
      ],
      "min": [
        -0.9998300671577454,
        -0.9999997615814209,
        -0.9999113082885742,
        1.0
      ],
      "type": "VEC4"
    },
    {
      "bufferView": 1,
      "componentType": 5126,
      "count": 8894,
      "max": [
        0.9912945032119751,
        1.0
      ],
      "min": [
        0.0,
        0.0
      ],
      "type": "VEC2"
    },
    {
      "bufferView": 1,
      "byteOffset": 71152,
      "componentType": 5126,
      "count": 8894,
      "max": [
        0.9912945032119751,
        1.0
      ],
      "min": [
        0.0,
        0.0
      ],
      "type": "VEC2"
    },
    {
      "bufferView": 1,
      "byteOffset": 142304,
      "componentType": 5126,
      "count": 8894,
      "max": [
        0.9912945032119751,
        1.0
      ],
      "min": [
        0.0,
        0.0
      ],
      "type": "VEC2"
    },
    {
      "bufferView": 1,
      "byteOffset": 213456,
      "componentType": 5126,
      "count": 8894,
      "max": [
        0.9912945032119751,
        1.0
      ],
      "min": [
        0.0,
        0.0
      ],
      "type": "VEC2"
    },
    {
      "bufferView": 0,
      "componentType": 5125,
      "count": 44352,
      "type": "SCALAR"
    }
  ],
  "asset": {
    "extras": {
      "author": "vincekelly2187 (https://sketchfab.com/vincekelly2187)",
      "license": "CC-BY-4.0 (http://creativecommons.org/licenses/by/4.0/)",
      "source": "https://sketchfab.com/3d-models/desert-building-953e5ea65a7148c79fac9e7912930d43",
      "title": "Desert Building"
    },
    "generator": "Sketchfab-14.73.0",
    "version": "2.0"
  },
  "bufferViews": [
    {
      "buffer": 0,
      "byteLength": 177408,
      "name": "floatBufferViews",
      "target": 34963
    },
    {
      "buffer": 0,
      "byteLength": 284608,
      "byteOffset": 177408,
      "byteStride": 8,
      "name": "floatBufferViews",
      "target": 34962
    },
    {
      "buffer": 0,
      "byteLength": 213456,
      "byteOffset": 462016,
      "byteStride": 12,
      "name": "floatBufferViews",
      "target": 34962
    },
    {
      "buffer": 0,
      "byteLength": 142304,
      "byteOffset": 675472,
      "byteStride": 16,
      "name": "floatBufferViews",
      "target": 34962
    }
  ],
  "buffers": [
    {
      "byteLength": 817776,
      "uri": "scene.bin"
    }
  ],
  "images": [
    {
      "uri": "textures/building_baseColor.png"
    },
    {
      "uri": "textures/building_metallicRoughness.png"
    },
    {
      "uri": "textures/building_normal.png"
    }
  ],
  "materials": [
    {
      "doubleSided": true,
      "name": "building",
      "normalTexture": {
        "index": 2
      },
      "pbrMetallicRoughness": {
        "baseColorTexture": {
          "index": 0
        },
        "metallicFactor": 0.0,
        "metallicRoughnessTexture": {
          "index": 1
        }
      }
    }
  ],
  "meshes": [
    {
      "name": "Object_0",
      "primitives": [
        {
          "attributes": {
            "NORMAL": 1,
            "POSITION": 0,
            "TANGENT": 2,
            "TEXCOORD_0": 3,
            "TEXCOORD_1": 4,
            "TEXCOORD_2": 5,
            "TEXCOORD_3": 6
          },
          "indices": 7,
          "material": 0,
          "mode": 4
        }
      ]
    }
  ],
  "nodes": [
    {
      "children": [
        1
      ],
      "matrix": [
        1.0,
        0.0,
        0.0,
        0.0,
        0.0,
        2.220446049250313e-16,
        -1.0,
        0.0,
        0.0,
        1.0,
        2.220446049250313e-16,
        0.0,
        0.0,
        0.0,
        0.0,
        1.0
      ],
      "name": "Sketchfab_model"
    },
    {
      "children": [
        2
      ],
      "name": "root"
    },
    {
      "children": [
        3
      ],
      "matrix": [
        1.0,
        0.0,
        0.0,
        0.0,
        0.0,
        2.220446049250313e-16,
        1.0,
        0.0,
        0.0,
        -1.0,
        2.220446049250313e-16,
        0.0,
        0.0,
        0.0,
        0.0,
        1.0
      ],
      "name": "GLTF_SceneRootNode"
    },
    {
      "children": [
        4
      ],
      "name": "Building_2"
    },
    {
      "mesh": 0,
      "name": "Object_4"
    }
  ],
  "samplers": [
    {
      "magFilter": 9729,
      "minFilter": 9987,
      "wrapS": 10497,
      "wrapT": 10497
    }
  ],
  "scene": 0,
  "scenes": [
    {
      "name": "Sketchfab_Scene",
      "nodes": [
        0
      ]
    }
  ],
  "textures": [
    {
      "sampler": 0,
      "source": 0
    },
    {
      "sampler": 0,
      "source": 1
    },
    {
      "sampler": 0,
      "source": 2
    }
  ]
}
